<svg width="259" height="83" viewBox="0 0 259 83" fill="none" xmlns="http://www.w3.org/2000/svg">
<path d="M37.2574 4.24264C39.6005 1.8995 43.3995 1.8995 45.7426 4.24264L78.7574 37.2574C81.1005 39.6005 81.1005 43.3995 78.7574 45.7426L45.7426 78.7574C43.3995 81.1005 39.6005 81.1005 37.2574 78.7574L4.24264 45.7426C1.8995 43.3995 1.8995 39.6005 4.24264 37.2574L37.2574 4.24264Z" fill="#65DAFF"/>
<path d="M37.968 48.032H29.584L28.24 52H22.512L30.64 29.536H36.976L45.104 52H39.312L37.968 48.032ZM36.56 43.808L33.776 35.584L31.024 43.808H36.56ZM54.3298 36.672C54.8631 35.84 55.5991 35.168 56.5378 34.656C57.4764 34.144 58.5751 33.888 59.8338 33.888C61.3058 33.888 62.6391 34.2613 63.8338 35.008C65.0284 35.7547 65.9671 36.8213 66.6498 38.208C67.3538 39.5947 67.7058 41.2053 67.7058 43.04C67.7058 44.8747 67.3538 46.496 66.6498 47.904C65.9671 49.2907 65.0284 50.368 63.8338 51.136C62.6391 51.8827 61.3058 52.256 59.8338 52.256C58.5964 52.256 57.4978 52 56.5378 51.488C55.5991 50.976 54.8631 50.3147 54.3298 49.504V60.512H48.8578V34.144H54.3298V36.672ZM62.1378 43.04C62.1378 41.6747 61.7538 40.608 60.9858 39.84C60.2391 39.0507 59.3111 38.656 58.2018 38.656C57.1138 38.656 56.1858 39.0507 55.4178 39.84C54.6711 40.6293 54.2978 41.7067 54.2978 43.072C54.2978 44.4373 54.6711 45.5147 55.4178 46.304C56.1858 47.0933 57.1138 47.488 58.2018 47.488C59.2898 47.488 60.2178 47.0933 60.9858 46.304C61.7538 45.4933 62.1378 44.4053 62.1378 43.04ZM77.3285 36.672C77.8618 35.84 78.5978 35.168 79.5365 34.656C80.4752 34.144 81.5738 33.888 82.8325 33.888C84.3045 33.888 85.6378 34.2613 86.8325 35.008C88.0272 35.7547 88.9658 36.8213 89.6485 38.208C90.3525 39.5947 90.7045 41.2053 90.7045 43.04C90.7045 44.8747 90.3525 46.496 89.6485 47.904C88.9658 49.2907 88.0272 50.368 86.8325 51.136C85.6378 51.8827 84.3045 52.256 82.8325 52.256C81.5952 52.256 80.4965 52 79.5365 51.488C78.5978 50.976 77.8618 50.3147 77.3285 49.504V60.512H71.8565V34.144H77.3285V36.672ZM85.1365 43.04C85.1365 41.6747 84.7525 40.608 83.9845 39.84C83.2378 39.0507 82.3098 38.656 81.2005 38.656C80.1125 38.656 79.1845 39.0507 78.4165 39.84C77.6698 40.6293 77.2965 41.7067 77.2965 43.072C77.2965 44.4373 77.6698 45.5147 78.4165 46.304C79.1845 47.0933 80.1125 47.488 81.2005 47.488C82.2885 47.488 83.2165 47.0933 83.9845 46.304C84.7525 45.4933 85.1365 44.4053 85.1365 43.04ZM100.327 28.32V52H94.8552V28.32H100.327ZM123.813 34.144L112.613 60.48H106.725L110.821 51.392L103.557 34.144H109.669L113.797 45.312L117.893 34.144H123.813ZM140.672 40.48C141.973 40.7573 143.018 41.408 143.808 42.432C144.597 43.4347 144.992 44.5867 144.992 45.888C144.992 47.7653 144.33 49.2587 143.008 50.368C141.706 51.456 139.882 52 137.536 52H127.072V29.536H137.184C139.466 29.536 141.248 30.0587 142.528 31.104C143.829 32.1493 144.48 33.568 144.48 35.36C144.48 36.6827 144.128 37.7813 143.424 38.656C142.741 39.5307 141.824 40.1387 140.672 40.48ZM132.544 38.624H136.128C137.024 38.624 137.706 38.432 138.176 38.048C138.666 37.6427 138.912 37.056 138.912 36.288C138.912 35.52 138.666 34.9333 138.176 34.528C137.706 34.1227 137.024 33.92 136.128 33.92H132.544V38.624ZM136.576 47.584C137.493 47.584 138.197 47.3813 138.688 46.976C139.2 46.5493 139.456 45.9413 139.456 45.152C139.456 44.3627 139.189 43.744 138.656 43.296C138.144 42.848 137.429 42.624 136.512 42.624H132.544V47.584H136.576ZM157.573 52.256C155.824 52.256 154.245 51.8827 152.837 51.136C151.451 50.3893 150.352 49.3227 149.541 47.936C148.752 46.5493 148.357 44.928 148.357 43.072C148.357 41.2373 148.763 39.6267 149.573 38.24C150.384 36.832 151.493 35.7547 152.901 35.008C154.309 34.2613 155.888 33.888 157.637 33.888C159.387 33.888 160.965 34.2613 162.373 35.008C163.781 35.7547 164.891 36.832 165.701 38.24C166.512 39.6267 166.917 41.2373 166.917 43.072C166.917 44.9067 166.501 46.528 165.669 47.936C164.859 49.3227 163.739 50.3893 162.309 51.136C160.901 51.8827 159.323 52.256 157.573 52.256ZM157.573 47.52C158.619 47.52 159.504 47.136 160.229 46.368C160.976 45.6 161.349 44.5013 161.349 43.072C161.349 41.6427 160.987 40.544 160.261 39.776C159.557 39.008 158.683 38.624 157.637 38.624C156.571 38.624 155.685 39.008 154.981 39.776C154.277 40.5227 153.925 41.6213 153.925 43.072C153.925 44.5013 154.267 45.6 154.949 46.368C155.653 47.136 156.528 47.52 157.573 47.52ZM179.228 52.256C177.479 52.256 175.9 51.8827 174.492 51.136C173.106 50.3893 172.007 49.3227 171.196 47.936C170.407 46.5493 170.012 44.928 170.012 43.072C170.012 41.2373 170.418 39.6267 171.228 38.24C172.039 36.832 173.148 35.7547 174.556 35.008C175.964 34.2613 177.543 33.888 179.292 33.888C181.042 33.888 182.62 34.2613 184.028 35.008C185.436 35.7547 186.546 36.832 187.356 38.24C188.167 39.6267 188.572 41.2373 188.572 43.072C188.572 44.9067 188.156 46.528 187.324 47.936C186.514 49.3227 185.394 50.3893 183.964 51.136C182.556 51.8827 180.978 52.256 179.228 52.256ZM179.228 47.52C180.274 47.52 181.159 47.136 181.884 46.368C182.631 45.6 183.004 44.5013 183.004 43.072C183.004 41.6427 182.642 40.544 181.916 39.776C181.212 39.008 180.338 38.624 179.292 38.624C178.226 38.624 177.34 39.008 176.636 39.776C175.932 40.5227 175.58 41.6213 175.58 43.072C175.58 44.5013 175.922 45.6 176.604 46.368C177.308 47.136 178.183 47.52 179.228 47.52ZM200.019 52.256C198.462 52.256 197.075 51.9893 195.859 51.456C194.643 50.9227 193.683 50.1973 192.979 49.28C192.275 48.3413 191.881 47.296 191.795 46.144H197.203C197.267 46.7627 197.555 47.264 198.067 47.648C198.579 48.032 199.209 48.224 199.955 48.224C200.638 48.224 201.161 48.096 201.523 47.84C201.907 47.5627 202.099 47.2107 202.099 46.784C202.099 46.272 201.833 45.8987 201.299 45.664C200.766 45.408 199.902 45.1307 198.707 44.832C197.427 44.5333 196.361 44.224 195.507 43.904C194.654 43.5627 193.918 43.04 193.299 42.336C192.681 41.6107 192.371 40.64 192.371 39.424C192.371 38.4 192.649 37.472 193.203 36.64C193.779 35.7867 194.611 35.1147 195.699 34.624C196.809 34.1333 198.121 33.888 199.635 33.888C201.875 33.888 203.635 34.4427 204.915 35.552C206.217 36.6613 206.963 38.1333 207.155 39.968H202.099C202.014 39.3493 201.737 38.8587 201.267 38.496C200.819 38.1333 200.222 37.952 199.475 37.952C198.835 37.952 198.345 38.08 198.003 38.336C197.662 38.5707 197.491 38.9013 197.491 39.328C197.491 39.84 197.758 40.224 198.291 40.48C198.846 40.736 199.699 40.992 200.851 41.248C202.174 41.5893 203.251 41.9307 204.083 42.272C204.915 42.592 205.641 43.1253 206.259 43.872C206.899 44.5973 207.23 45.5787 207.251 46.816C207.251 47.8613 206.953 48.8 206.355 49.632C205.779 50.4427 204.937 51.0827 203.827 51.552C202.739 52.0213 201.47 52.256 200.019 52.256ZM221.831 47.36V52H219.047C217.063 52 215.516 51.52 214.407 50.56C213.298 49.5787 212.743 47.9893 212.743 45.792V38.688H210.567V34.144H212.743V29.792H218.215V34.144H221.799V38.688H218.215V45.856C218.215 46.3893 218.343 46.7733 218.599 47.008C218.855 47.2427 219.282 47.36 219.879 47.36H221.831ZM242.991 42.784C242.991 43.296 242.959 43.8293 242.895 44.384H230.511C230.596 45.4933 230.948 46.3467 231.567 46.944C232.207 47.52 232.986 47.808 233.903 47.808C235.268 47.808 236.218 47.232 236.751 46.08H242.575C242.276 47.2533 241.732 48.3093 240.943 49.248C240.175 50.1867 239.204 50.9227 238.031 51.456C236.858 51.9893 235.546 52.256 234.095 52.256C232.346 52.256 230.788 51.8827 229.423 51.136C228.058 50.3893 226.991 49.3227 226.223 47.936C225.455 46.5493 225.071 44.928 225.071 43.072C225.071 41.216 225.444 39.5947 226.191 38.208C226.959 36.8213 228.026 35.7547 229.391 35.008C230.756 34.2613 232.324 33.888 234.095 33.888C235.823 33.888 237.359 34.2507 238.703 34.976C240.047 35.7013 241.092 36.736 241.839 38.08C242.607 39.424 242.991 40.992 242.991 42.784ZM237.391 41.344C237.391 40.4053 237.071 39.6587 236.431 39.104C235.791 38.5493 234.991 38.272 234.031 38.272C233.114 38.272 232.335 38.5387 231.695 39.072C231.076 39.6053 230.692 40.3627 230.543 41.344H237.391ZM252.63 37.12C253.27 36.1387 254.07 35.3707 255.03 34.816C255.99 34.24 257.056 33.952 258.23 33.952V39.744H256.726C255.36 39.744 254.336 40.0427 253.654 40.64C252.971 41.216 252.63 42.24 252.63 43.712V52H247.158V34.144H252.63V37.12Z" fill="#113C49"/>
</svg>
