<svg width="508" height="83" viewBox="0 0 508 83" fill="none" xmlns="http://www.w3.org/2000/svg">
<path d="M37.9645 4.94975C39.9171 2.99713 43.0829 2.99713 45.0355 4.94975L78.0502 37.9645C80.0029 39.9171 80.0029 43.0829 78.0503 45.0355L45.0355 78.0502C43.0829 80.0029 39.9171 80.0029 37.9645 78.0503L4.94975 45.0355C2.99713 43.0829 2.99713 39.9171 4.94975 37.9645L37.9645 4.94975Z" stroke="#26C1F2" stroke-width="2"/>
<path d="M37.968 48.032H29.584L28.24 52H22.512L30.64 29.536H36.976L45.104 52H39.312L37.968 48.032ZM36.56 43.808L33.776 35.584L31.024 43.808H36.56ZM54.3298 36.672C54.8631 35.84 55.5991 35.168 56.5378 34.656C57.4764 34.144 58.5751 33.888 59.8338 33.888C61.3058 33.888 62.6391 34.2613 63.8338 35.008C65.0284 35.7547 65.9671 36.8213 66.6498 38.208C67.3538 39.5947 67.7058 41.2053 67.7058 43.04C67.7058 44.8747 67.3538 46.496 66.6498 47.904C65.9671 49.2907 65.0284 50.368 63.8338 51.136C62.6391 51.8827 61.3058 52.256 59.8338 52.256C58.5964 52.256 57.4978 52 56.5378 51.488C55.5991 50.976 54.8631 50.3147 54.3298 49.504V60.512H48.8578V34.144H54.3298V36.672ZM62.1378 43.04C62.1378 41.6747 61.7538 40.608 60.9858 39.84C60.2391 39.0507 59.3111 38.656 58.2018 38.656C57.1138 38.656 56.1858 39.0507 55.4178 39.84C54.6711 40.6293 54.2978 41.7067 54.2978 43.072C54.2978 44.4373 54.6711 45.5147 55.4178 46.304C56.1858 47.0933 57.1138 47.488 58.2018 47.488C59.2898 47.488 60.2178 47.0933 60.9858 46.304C61.7538 45.4933 62.1378 44.4053 62.1378 43.04ZM77.3285 36.672C77.8618 35.84 78.5978 35.168 79.5365 34.656C80.4752 34.144 81.5738 33.888 82.8325 33.888C84.3045 33.888 85.6378 34.2613 86.8325 35.008C88.0272 35.7547 88.9658 36.8213 89.6485 38.208C90.3525 39.5947 90.7045 41.2053 90.7045 43.04C90.7045 44.8747 90.3525 46.496 89.6485 47.904C88.9658 49.2907 88.0272 50.368 86.8325 51.136C85.6378 51.8827 84.3045 52.256 82.8325 52.256C81.5952 52.256 80.4965 52 79.5365 51.488C78.5978 50.976 77.8618 50.3147 77.3285 49.504V60.512H71.8565V34.144H77.3285V36.672ZM85.1365 43.04C85.1365 41.6747 84.7525 40.608 83.9845 39.84C83.2378 39.0507 82.3098 38.656 81.2005 38.656C80.1125 38.656 79.1845 39.0507 78.4165 39.84C77.6698 40.6293 77.2965 41.7067 77.2965 43.072C77.2965 44.4373 77.6698 45.5147 78.4165 46.304C79.1845 47.0933 80.1125 47.488 81.2005 47.488C82.2885 47.488 83.2165 47.0933 83.9845 46.304C84.7525 45.4933 85.1365 44.4053 85.1365 43.04ZM100.327 28.32V52H94.8552V28.32H100.327ZM123.813 34.144L112.613 60.48H106.725L110.821 51.392L103.557 34.144H109.669L113.797 45.312L117.893 34.144H123.813ZM140.672 40.48C141.973 40.7573 143.018 41.408 143.808 42.432C144.597 43.4347 144.992 44.5867 144.992 45.888C144.992 47.7653 144.33 49.2587 143.008 50.368C141.706 51.456 139.882 52 137.536 52H127.072V29.536H137.184C139.466 29.536 141.248 30.0587 142.528 31.104C143.829 32.1493 144.48 33.568 144.48 35.36C144.48 36.6827 144.128 37.7813 143.424 38.656C142.741 39.5307 141.824 40.1387 140.672 40.48ZM132.544 38.624H136.128C137.024 38.624 137.706 38.432 138.176 38.048C138.666 37.6427 138.912 37.056 138.912 36.288C138.912 35.52 138.666 34.9333 138.176 34.528C137.706 34.1227 137.024 33.92 136.128 33.92H132.544V38.624ZM136.576 47.584C137.493 47.584 138.197 47.3813 138.688 46.976C139.2 46.5493 139.456 45.9413 139.456 45.152C139.456 44.3627 139.189 43.744 138.656 43.296C138.144 42.848 137.429 42.624 136.512 42.624H132.544V47.584H136.576ZM157.573 52.256C155.824 52.256 154.245 51.8827 152.837 51.136C151.451 50.3893 150.352 49.3227 149.541 47.936C148.752 46.5493 148.357 44.928 148.357 43.072C148.357 41.2373 148.763 39.6267 149.573 38.24C150.384 36.832 151.493 35.7547 152.901 35.008C154.309 34.2613 155.888 33.888 157.637 33.888C159.387 33.888 160.965 34.2613 162.373 35.008C163.781 35.7547 164.891 36.832 165.701 38.24C166.512 39.6267 166.917 41.2373 166.917 43.072C166.917 44.9067 166.501 46.528 165.669 47.936C164.859 49.3227 163.739 50.3893 162.309 51.136C160.901 51.8827 159.323 52.256 157.573 52.256ZM157.573 47.52C158.619 47.52 159.504 47.136 160.229 46.368C160.976 45.6 161.349 44.5013 161.349 43.072C161.349 41.6427 160.987 40.544 160.261 39.776C159.557 39.008 158.683 38.624 157.637 38.624C156.571 38.624 155.685 39.008 154.981 39.776C154.277 40.5227 153.925 41.6213 153.925 43.072C153.925 44.5013 154.267 45.6 154.949 46.368C155.653 47.136 156.528 47.52 157.573 47.52ZM179.228 52.256C177.479 52.256 175.9 51.8827 174.492 51.136C173.106 50.3893 172.007 49.3227 171.196 47.936C170.407 46.5493 170.012 44.928 170.012 43.072C170.012 41.2373 170.418 39.6267 171.228 38.24C172.039 36.832 173.148 35.7547 174.556 35.008C175.964 34.2613 177.543 33.888 179.292 33.888C181.042 33.888 182.62 34.2613 184.028 35.008C185.436 35.7547 186.546 36.832 187.356 38.24C188.167 39.6267 188.572 41.2373 188.572 43.072C188.572 44.9067 188.156 46.528 187.324 47.936C186.514 49.3227 185.394 50.3893 183.964 51.136C182.556 51.8827 180.978 52.256 179.228 52.256ZM179.228 47.52C180.274 47.52 181.159 47.136 181.884 46.368C182.631 45.6 183.004 44.5013 183.004 43.072C183.004 41.6427 182.642 40.544 181.916 39.776C181.212 39.008 180.338 38.624 179.292 38.624C178.226 38.624 177.34 39.008 176.636 39.776C175.932 40.5227 175.58 41.6213 175.58 43.072C175.58 44.5013 175.922 45.6 176.604 46.368C177.308 47.136 178.183 47.52 179.228 47.52ZM200.019 52.256C198.462 52.256 197.075 51.9893 195.859 51.456C194.643 50.9227 193.683 50.1973 192.979 49.28C192.275 48.3413 191.881 47.296 191.795 46.144H197.203C197.267 46.7627 197.555 47.264 198.067 47.648C198.579 48.032 199.209 48.224 199.955 48.224C200.638 48.224 201.161 48.096 201.523 47.84C201.907 47.5627 202.099 47.2107 202.099 46.784C202.099 46.272 201.833 45.8987 201.299 45.664C200.766 45.408 199.902 45.1307 198.707 44.832C197.427 44.5333 196.361 44.224 195.507 43.904C194.654 43.5627 193.918 43.04 193.299 42.336C192.681 41.6107 192.371 40.64 192.371 39.424C192.371 38.4 192.649 37.472 193.203 36.64C193.779 35.7867 194.611 35.1147 195.699 34.624C196.809 34.1333 198.121 33.888 199.635 33.888C201.875 33.888 203.635 34.4427 204.915 35.552C206.217 36.6613 206.963 38.1333 207.155 39.968H202.099C202.014 39.3493 201.737 38.8587 201.267 38.496C200.819 38.1333 200.222 37.952 199.475 37.952C198.835 37.952 198.345 38.08 198.003 38.336C197.662 38.5707 197.491 38.9013 197.491 39.328C197.491 39.84 197.758 40.224 198.291 40.48C198.846 40.736 199.699 40.992 200.851 41.248C202.174 41.5893 203.251 41.9307 204.083 42.272C204.915 42.592 205.641 43.1253 206.259 43.872C206.899 44.5973 207.23 45.5787 207.251 46.816C207.251 47.8613 206.953 48.8 206.355 49.632C205.779 50.4427 204.937 51.0827 203.827 51.552C202.739 52.0213 201.47 52.256 200.019 52.256ZM221.831 47.36V52H219.047C217.063 52 215.516 51.52 214.407 50.56C213.298 49.5787 212.743 47.9893 212.743 45.792V38.688H210.567V34.144H212.743V29.792H218.215V34.144H221.799V38.688H218.215V45.856C218.215 46.3893 218.343 46.7733 218.599 47.008C218.855 47.2427 219.282 47.36 219.879 47.36H221.831ZM242.991 42.784C242.991 43.296 242.959 43.8293 242.895 44.384H230.511C230.596 45.4933 230.948 46.3467 231.567 46.944C232.207 47.52 232.986 47.808 233.903 47.808C235.268 47.808 236.218 47.232 236.751 46.08H242.575C242.276 47.2533 241.732 48.3093 240.943 49.248C240.175 50.1867 239.204 50.9227 238.031 51.456C236.858 51.9893 235.546 52.256 234.095 52.256C232.346 52.256 230.788 51.8827 229.423 51.136C228.058 50.3893 226.991 49.3227 226.223 47.936C225.455 46.5493 225.071 44.928 225.071 43.072C225.071 41.216 225.444 39.5947 226.191 38.208C226.959 36.8213 228.026 35.7547 229.391 35.008C230.756 34.2613 232.324 33.888 234.095 33.888C235.823 33.888 237.359 34.2507 238.703 34.976C240.047 35.7013 241.092 36.736 241.839 38.08C242.607 39.424 242.991 40.992 242.991 42.784ZM237.391 41.344C237.391 40.4053 237.071 39.6587 236.431 39.104C235.791 38.5493 234.991 38.272 234.031 38.272C233.114 38.272 232.335 38.5387 231.695 39.072C231.076 39.6053 230.692 40.3627 230.543 41.344H237.391ZM252.63 37.12C253.27 36.1387 254.07 35.3707 255.03 34.816C255.99 34.24 257.056 33.952 258.23 33.952V39.744H256.726C255.36 39.744 254.336 40.0427 253.654 40.64C252.971 41.216 252.63 42.24 252.63 43.712V52H247.158V34.144H252.63V37.12Z" fill="white"/>
<line x1="308.5" y1="-2.18557e-08" x2="308.5" y2="83" stroke="#626381"/>
<path d="M362.934 30.074H356.818L355.806 33H352.572L358.094 17.622H361.68L367.202 33H363.946L362.934 30.074ZM362.098 27.61L359.876 21.186L357.654 27.61H362.098ZM373.226 17.644V33H370.146V17.644H373.226ZM391.191 33L387.803 27.016H386.351V33H383.271V17.644H389.035C390.223 17.644 391.235 17.8567 392.071 18.282C392.907 18.6927 393.531 19.2573 393.941 19.976C394.367 20.68 394.579 21.472 394.579 22.352C394.579 23.364 394.286 24.2807 393.699 25.102C393.113 25.9087 392.24 26.466 391.081 26.774L394.755 33H391.191ZM386.351 24.706H388.925C389.761 24.706 390.385 24.508 390.795 24.112C391.206 23.7013 391.411 23.1367 391.411 22.418C391.411 21.714 391.206 21.1713 390.795 20.79C390.385 20.394 389.761 20.196 388.925 20.196H386.351V24.706ZM409.575 26.642C409.575 27.082 409.546 27.478 409.487 27.83H400.577C400.65 28.71 400.958 29.3993 401.501 29.898C402.044 30.3967 402.711 30.646 403.503 30.646C404.647 30.646 405.461 30.1547 405.945 29.172H409.267C408.915 30.3453 408.24 31.3133 407.243 32.076C406.246 32.824 405.021 33.198 403.569 33.198C402.396 33.198 401.34 32.9413 400.401 32.428C399.477 31.9 398.751 31.1593 398.223 30.206C397.71 29.2527 397.453 28.1527 397.453 26.906C397.453 25.6447 397.71 24.5373 398.223 23.584C398.736 22.6307 399.455 21.8973 400.379 21.384C401.303 20.8707 402.366 20.614 403.569 20.614C404.728 20.614 405.762 20.8633 406.671 21.362C407.595 21.8607 408.306 22.572 408.805 23.496C409.318 24.4053 409.575 25.454 409.575 26.642ZM406.385 25.762C406.37 24.97 406.084 24.3393 405.527 23.87C404.97 23.386 404.288 23.144 403.481 23.144C402.718 23.144 402.073 23.3787 401.545 23.848C401.032 24.3027 400.716 24.9407 400.599 25.762H406.385ZM417.367 33.198C416.37 33.198 415.475 33.022 414.683 32.67C413.891 32.3033 413.26 31.812 412.791 31.196C412.336 30.58 412.087 29.898 412.043 29.15H415.145C415.204 29.6193 415.431 30.008 415.827 30.316C416.238 30.624 416.744 30.778 417.345 30.778C417.932 30.778 418.386 30.6607 418.709 30.426C419.046 30.1913 419.215 29.8907 419.215 29.524C419.215 29.128 419.01 28.8347 418.599 28.644C418.203 28.4387 417.565 28.2187 416.685 27.984C415.776 27.764 415.028 27.5367 414.441 27.302C413.869 27.0673 413.37 26.708 412.945 26.224C412.534 25.74 412.329 25.0873 412.329 24.266C412.329 23.5913 412.52 22.9753 412.901 22.418C413.297 21.8607 413.854 21.4207 414.573 21.098C415.306 20.7753 416.164 20.614 417.147 20.614C418.599 20.614 419.758 20.9807 420.623 21.714C421.488 22.4327 421.965 23.408 422.053 24.64H419.105C419.061 24.156 418.856 23.7747 418.489 23.496C418.137 23.2027 417.66 23.056 417.059 23.056C416.502 23.056 416.069 23.1587 415.761 23.364C415.468 23.5693 415.321 23.8553 415.321 24.222C415.321 24.6327 415.526 24.948 415.937 25.168C416.348 25.3733 416.986 25.586 417.851 25.806C418.731 26.026 419.457 26.2533 420.029 26.488C420.601 26.7227 421.092 27.0893 421.503 27.588C421.928 28.072 422.148 28.7173 422.163 29.524C422.163 30.228 421.965 30.8587 421.569 31.416C421.188 31.9733 420.63 32.4133 419.897 32.736C419.178 33.044 418.335 33.198 417.367 33.198ZM437.077 20.812V33H433.975V31.46C433.579 31.988 433.059 32.406 432.413 32.714C431.783 33.0073 431.093 33.154 430.345 33.154C429.392 33.154 428.549 32.956 427.815 32.56C427.082 32.1493 426.503 31.5553 426.077 30.778C425.667 29.986 425.461 29.0473 425.461 27.962V20.812H428.541V27.522C428.541 28.49 428.783 29.238 429.267 29.766C429.751 30.2793 430.411 30.536 431.247 30.536C432.098 30.536 432.765 30.2793 433.249 29.766C433.733 29.238 433.975 28.49 433.975 27.522V20.812H437.077ZM456.132 20.636C457.628 20.636 458.831 21.098 459.74 22.022C460.664 22.9313 461.126 24.2073 461.126 25.85V33H458.046V26.268C458.046 25.3147 457.804 24.5887 457.32 24.09C456.836 23.5767 456.176 23.32 455.34 23.32C454.504 23.32 453.837 23.5767 453.338 24.09C452.854 24.5887 452.612 25.3147 452.612 26.268V33H449.532V26.268C449.532 25.3147 449.29 24.5887 448.806 24.09C448.322 23.5767 447.662 23.32 446.826 23.32C445.976 23.32 445.301 23.5767 444.802 24.09C444.318 24.5887 444.076 25.3147 444.076 26.268V33H440.996V20.812H444.076V22.286C444.472 21.7727 444.978 21.3693 445.594 21.076C446.225 20.7827 446.914 20.636 447.662 20.636C448.616 20.636 449.466 20.8413 450.214 21.252C450.962 21.648 451.542 22.22 451.952 22.968C452.348 22.264 452.92 21.6993 453.668 21.274C454.431 20.8487 455.252 20.636 456.132 20.636ZM476.259 26.642C476.259 27.082 476.23 27.478 476.171 27.83H467.261C467.334 28.71 467.642 29.3993 468.185 29.898C468.728 30.3967 469.395 30.646 470.187 30.646C471.331 30.646 472.145 30.1547 472.629 29.172H475.951C475.599 30.3453 474.924 31.3133 473.927 32.076C472.93 32.824 471.705 33.198 470.253 33.198C469.08 33.198 468.024 32.9413 467.085 32.428C466.161 31.9 465.435 31.1593 464.907 30.206C464.394 29.2527 464.137 28.1527 464.137 26.906C464.137 25.6447 464.394 24.5373 464.907 23.584C465.42 22.6307 466.139 21.8973 467.063 21.384C467.987 20.8707 469.05 20.614 470.253 20.614C471.412 20.614 472.446 20.8633 473.355 21.362C474.279 21.8607 474.99 22.572 475.489 23.496C476.002 24.4053 476.259 25.454 476.259 26.642ZM473.069 25.762C473.054 24.97 472.768 24.3393 472.211 23.87C471.654 23.386 470.972 23.144 470.165 23.144C469.402 23.144 468.757 23.3787 468.229 23.848C467.716 24.3027 467.4 24.9407 467.283 25.762H473.069ZM362.23 58.124C363.095 58.2853 363.807 58.718 364.364 59.422C364.921 60.126 365.2 60.9327 365.2 61.842C365.2 62.6633 364.995 63.3893 364.584 64.02C364.188 64.636 363.609 65.12 362.846 65.472C362.083 65.824 361.181 66 360.14 66H353.518V50.644H359.854C360.895 50.644 361.79 50.8127 362.538 51.15C363.301 51.4873 363.873 51.9567 364.254 52.558C364.65 53.1593 364.848 53.8413 364.848 54.604C364.848 55.4987 364.606 56.2467 364.122 56.848C363.653 57.4493 363.022 57.8747 362.23 58.124ZM356.598 56.98H359.414C360.147 56.98 360.712 56.8187 361.108 56.496C361.504 56.1587 361.702 55.682 361.702 55.066C361.702 54.45 361.504 53.9733 361.108 53.636C360.712 53.2987 360.147 53.13 359.414 53.13H356.598V56.98ZM359.7 63.492C360.448 63.492 361.027 63.316 361.438 62.964C361.863 62.612 362.076 62.1133 362.076 61.468C362.076 60.808 361.856 60.2947 361.416 59.928C360.976 59.5467 360.382 59.356 359.634 59.356H356.598V63.492H359.7ZM373.947 66.198C372.773 66.198 371.717 65.9413 370.779 65.428C369.84 64.9 369.099 64.1593 368.557 63.206C368.029 62.2527 367.765 61.1527 367.765 59.906C367.765 58.6593 368.036 57.5593 368.579 56.606C369.136 55.6527 369.891 54.9193 370.845 54.406C371.798 53.878 372.861 53.614 374.035 53.614C375.208 53.614 376.271 53.878 377.225 54.406C378.178 54.9193 378.926 55.6527 379.469 56.606C380.026 57.5593 380.305 58.6593 380.305 59.906C380.305 61.1527 380.019 62.2527 379.447 63.206C378.889 64.1593 378.127 64.9 377.159 65.428C376.205 65.9413 375.135 66.198 373.947 66.198ZM373.947 63.514C374.504 63.514 375.025 63.382 375.509 63.118C376.007 62.8393 376.403 62.4287 376.697 61.886C376.99 61.3433 377.137 60.6833 377.137 59.906C377.137 58.7473 376.829 57.86 376.213 57.244C375.611 56.6133 374.871 56.298 373.991 56.298C373.111 56.298 372.37 56.6133 371.769 57.244C371.182 57.86 370.889 58.7473 370.889 59.906C370.889 61.0647 371.175 61.9593 371.747 62.59C372.333 63.206 373.067 63.514 373.947 63.514ZM388.856 66.198C387.683 66.198 386.627 65.9413 385.688 65.428C384.749 64.9 384.009 64.1593 383.466 63.206C382.938 62.2527 382.674 61.1527 382.674 59.906C382.674 58.6593 382.945 57.5593 383.488 56.606C384.045 55.6527 384.801 54.9193 385.754 54.406C386.707 53.878 387.771 53.614 388.944 53.614C390.117 53.614 391.181 53.878 392.134 54.406C393.087 54.9193 393.835 55.6527 394.378 56.606C394.935 57.5593 395.214 58.6593 395.214 59.906C395.214 61.1527 394.928 62.2527 394.356 63.206C393.799 64.1593 393.036 64.9 392.068 65.428C391.115 65.9413 390.044 66.198 388.856 66.198ZM388.856 63.514C389.413 63.514 389.934 63.382 390.418 63.118C390.917 62.8393 391.313 62.4287 391.606 61.886C391.899 61.3433 392.046 60.6833 392.046 59.906C392.046 58.7473 391.738 57.86 391.122 57.244C390.521 56.6133 389.78 56.298 388.9 56.298C388.02 56.298 387.279 56.6133 386.678 57.244C386.091 57.86 385.798 58.7473 385.798 59.906C385.798 61.0647 386.084 61.9593 386.656 62.59C387.243 63.206 387.976 63.514 388.856 63.514ZM403.017 66.198C402.02 66.198 401.125 66.022 400.333 65.67C399.541 65.3033 398.911 64.812 398.441 64.196C397.987 63.58 397.737 62.898 397.693 62.15H400.795C400.854 62.6193 401.081 63.008 401.477 63.316C401.888 63.624 402.394 63.778 402.995 63.778C403.582 63.778 404.037 63.6607 404.359 63.426C404.697 63.1913 404.865 62.8907 404.865 62.524C404.865 62.128 404.66 61.8347 404.249 61.644C403.853 61.4387 403.215 61.2187 402.335 60.984C401.426 60.764 400.678 60.5367 400.091 60.302C399.519 60.0673 399.021 59.708 398.595 59.224C398.185 58.74 397.979 58.0873 397.979 57.266C397.979 56.5913 398.17 55.9753 398.551 55.418C398.947 54.8607 399.505 54.4207 400.223 54.098C400.957 53.7753 401.815 53.614 402.797 53.614C404.249 53.614 405.408 53.9807 406.273 54.714C407.139 55.4327 407.615 56.408 407.703 57.64H404.755C404.711 57.156 404.506 56.7747 404.139 56.496C403.787 56.2027 403.311 56.056 402.709 56.056C402.152 56.056 401.719 56.1587 401.411 56.364C401.118 56.5693 400.971 56.8553 400.971 57.222C400.971 57.6327 401.177 57.948 401.587 58.168C401.998 58.3733 402.636 58.586 403.501 58.806C404.381 59.026 405.107 59.2533 405.679 59.488C406.251 59.7227 406.743 60.0893 407.153 60.588C407.579 61.072 407.799 61.7173 407.813 62.524C407.813 63.228 407.615 63.8587 407.219 64.416C406.838 64.9733 406.281 65.4133 405.547 65.736C404.829 66.044 403.985 66.198 403.017 66.198ZM414.808 56.342V62.238C414.808 62.6487 414.903 62.9493 415.094 63.14C415.299 63.316 415.636 63.404 416.106 63.404H417.536V66H415.6C413.004 66 411.706 64.7387 411.706 62.216V56.342H410.254V53.812H411.706V50.798H414.808V53.812H417.536V56.342H414.808ZM431.961 59.642C431.961 60.082 431.932 60.478 431.873 60.83H422.963C423.036 61.71 423.344 62.3993 423.887 62.898C424.43 63.3967 425.097 63.646 425.889 63.646C427.033 63.646 427.847 63.1547 428.331 62.172H431.653C431.301 63.3453 430.626 64.3133 429.629 65.076C428.632 65.824 427.407 66.198 425.955 66.198C424.782 66.198 423.726 65.9413 422.787 65.428C421.863 64.9 421.137 64.1593 420.609 63.206C420.096 62.2527 419.839 61.1527 419.839 59.906C419.839 58.6447 420.096 57.5373 420.609 56.584C421.122 55.6307 421.841 54.8973 422.765 54.384C423.689 53.8707 424.752 53.614 425.955 53.614C427.114 53.614 428.148 53.8633 429.057 54.362C429.981 54.8607 430.692 55.572 431.191 56.496C431.704 57.4053 431.961 58.454 431.961 59.642ZM428.771 58.762C428.756 57.97 428.47 57.3393 427.913 56.87C427.356 56.386 426.674 56.144 425.867 56.144C425.104 56.144 424.459 56.3787 423.931 56.848C423.418 57.3027 423.102 57.9407 422.985 58.762H428.771ZM438.169 55.704C438.565 55.0587 439.078 54.5527 439.709 54.186C440.354 53.8193 441.088 53.636 441.909 53.636V56.87H441.095C440.127 56.87 439.394 57.0973 438.895 57.552C438.411 58.0067 438.169 58.7987 438.169 59.928V66H435.089V53.812H438.169V55.704Z" fill="white"/>
</svg>
